HIERARCHY
ROOT Hips
{
  OFFSET 52.8871 84.4027 8.12198
  CHANNELS 6 Xposition Yposition Zposition Zrotation Xrotation Yrotation
  JOINT spine
  {
    OFFSET 0 5.95438 0.342407
    CHANNELS 3 Zrotation Xrotation Yrotation
    JOINT spine1
    {
      OFFSET 0 8.85602 0
      CHANNELS 3 Zrotation Xrotation Yrotation
      JOINT spine2
      {
        OFFSET 0 8.48567 0
        CHANNELS 3 Zrotation Xrotation Yrotation
        JOINT Neck
        {
          OFFSET 0 21.7863 1.0387
          CHANNELS 3 Zrotation Xrotation Yrotation
          JOINT Head
          {
            OFFSET 0 6.5822 0
            CHANNELS 3 Zrotation Xrotation Yrotation
            End Site
            {
              OFFSET 0 15.9326 -5.25436
            }
          }
        }
        JOINT RightShoulder
        {
          OFFSET -3.57307 9.16386 -0.497525
          CHANNELS 3 Zrotation Xrotation Yrotation
          JOINT RightArm
          {
            OFFSET 0 12.0192 0
            CHANNELS 3 Zrotation Xrotation Yrotation
            JOINT RightArmRoll
            {
              OFFSET 0 6.06755 0
              CHANNELS 3 Zrotation Xrotation Yrotation
              JOINT RightForeArm
              {
                OFFSET 0 17.6726 0
                CHANNELS 3 Zrotation Xrotation Yrotation
                JOINT RightForeArmRoll
                {
                  OFFSET 0 6.80872 0
                  CHANNELS 3 Zrotation Xrotation Yrotation
                  JOINT RightHand
                  {
                    OFFSET 0 13.6636 0
                    CHANNELS 3 Zrotation Xrotation Yrotation
                    End Site
                    {
                      OFFSET 0 0 0
                    }
                  }
                }
              }
            }
          }
        }
        JOINT LeftShoulder
        {
          OFFSET 3.57307 9.16386 -0.497525
          CHANNELS 3 Zrotation Xrotation Yrotation
          JOINT LeftArm
          {
            OFFSET 0 12.0192 0
            CHANNELS 3 Zrotation Xrotation Yrotation
            JOINT LeftArmRoll
            {
              OFFSET 0 6.06755 0
              CHANNELS 3 Zrotation Xrotation Yrotation
              JOINT LeftForeArm
              {
                OFFSET 0 17.6726 0
                CHANNELS 3 Zrotation Xrotation Yrotation
                JOINT LeftForeArmRoll
                {
                  OFFSET 0 6.80872 0
                  CHANNELS 3 Zrotation Xrotation Yrotation
                  JOINT LeftHand
                  {
                    OFFSET 0 13.6636 0
                    CHANNELS 3 Zrotation Xrotation Yrotation
                    End Site
                    {
                      OFFSET 0 0 0
                    }
                  }
                }
              }
            }
          }
        }
      }
    }
  }
  JOINT RightUpLeg
  {
    OFFSET -5.27774 -0.967797 -0.811858
    CHANNELS 3 Zrotation Xrotation Yrotation
    JOINT RightUpLegRoll
    {
      OFFSET 0 16.0214 0
      CHANNELS 3 Zrotation Xrotation Yrotation
      JOINT RightLeg
      {
        OFFSET 0 -19.8401 0
        CHANNELS 3 Zrotation Xrotation Yrotation
        JOINT RightLegRoll
        {
          OFFSET 0 19.905 0
          CHANNELS 3 Zrotation Xrotation Yrotation
          JOINT RightFoot
          {
            OFFSET 0 16.5675 0
            CHANNELS 3 Zrotation Xrotation Yrotation
            JOINT RightToeBase
            {
              OFFSET 0 13.8496 0
              CHANNELS 3 Zrotation Xrotation Yrotation
              End Site
              {
                OFFSET 0.00587034 6.70728 -0.773117
              }
            }
          }
        }
      }
    }
  }
  JOINT LeftUpLeg
  {
    OFFSET 5.27774 -0.967797 -0.811858
    CHANNELS 3 Zrotation Xrotation Yrotation
    JOINT LeftUpLegRoll
    {
      OFFSET 0 16.0215 0
      CHANNELS 3 Zrotation Xrotation Yrotation
      JOINT LeftLeg
      {
        OFFSET 0 19.84 0
        CHANNELS 3 Zrotation Xrotation Yrotation
        JOINT LeftLegRoll
        {
          OFFSET 0 20.089 0
          CHANNELS 3 Zrotation Xrotation Yrotation
          JOINT LeftFoot
          {
            OFFSET 0 16.3835 0
            CHANNELS 3 Zrotation Xrotation Yrotation
            JOINT LeftToeBase
            {
              OFFSET 0 13.8496 0
              CHANNELS 3 Zrotation Xrotation Yrotation
              End Site
              {
                OFFSET -0.0263083 6.70728 -0.773116
              }
            }
          }
        }
      }
    }
  }
}
MOTION
Frames: 4
Frame Time: 0.00208333
50.1795 83.9868 5.94182 -0.570813 -0.971605 22.5609 0.0144573 -0.553811 0.215091 0.0217939 2.89525 0.429437 0.0166693 4.5403 0.429389 -47.633 -6.8999 -10.7449 56.3703 4.49003 -17.1797 18.408 11.2607 20.865 94.7718 68.457 -8.78573 3.15848e-006 6.21163e-007 1.89028e-006 -3.65851 -2.50717 -2.08834 7.49416e-006 -1.95032e-007 -3.01224 8.03008 -4.95138 0.697625 -78.77 -17.3161 9.35062 -138.953 61.5773 71.9224 -9.4337e-008 2.58898e-006 2.0073e-006 178.067 65.0101 -173.599 9.87291e-006 -6.21144e-007 3.00001 -8.03008 -4.95139 -0.697628 -175.502 3.27512 -1.13411 180 7.01552e-015 178.943 179.721 9.91521 179.636 1.83322e-006 1.71987e-006 0.25215 -20.5507 70.1938 21.5633 8.1365 25.2327 -3.48774 -179.143 11.1933 1.08595 4.54188e-006 -4.6773e-006 -0.974136 -1.16445 -16.564 0.414595 -1.12461e-006 -6.64692e-007 -0.22668 18.9438 68.4673 -19.9294 -8.13649 25.2327 3.48774 
50.1887 83.9844 5.95601 -0.549774 -0.990142 22.5801 0.0124791 -0.554486 0.213444 0.0165419 2.89389 0.426441 0.0114479 4.53894 0.426549 -47.4407 -6.74242 -10.6329 56.2142 4.43509 -17.0769 18.6788 11.245 20.7178 95.3904 68.9374 -9.40455 3.15848e-006 6.21163e-007 1.89028e-006 -3.6624 -2.90597 -2.10412 7.49416e-006 -1.95032e-007 -3.01234 8.03008 -4.95138 0.697625 -78.5846 -17.2875 9.35196 -138.718 61.7069 71.6404 -9.4337e-008 2.58898e-006 2.0073e-006 178.078 64.9438 -173.611 9.87291e-006 -6.21144e-007 3.00001 -8.03008 -4.95139 -0.697628 -175.506 3.2101 -1.13362 180 7.01552e-015 178.943 179.734 9.85613 179.636 1.83322e-006 1.71987e-006 0.249154 -20.5105 70.1556 21.5208 8.1365 25.2327 -3.48774 -179.133 11.1759 1.06351 4.54188e-006 -4.6773e-006 -0.974292 -1.18904 -16.5867 0.410265 -1.12461e-006 -6.64692e-007 -0.228328 18.9742 68.5047 -19.9615 -8.13649 25.2327 3.48774 
50.2082 83.9779 5.95342 -0.530196 -1.00707 22.5973 0.0106508 -0.555565 0.211868 0.0116208 2.89172 0.423571 0.00655623 4.53677 0.42383 -47.2462 -6.58264 -10.5214 56.0599 4.37659 -16.9729 18.9548 11.2291 20.5686 96.0153 69.3704 -10.0275 3.15848e-006 6.21163e-007 1.89028e-006 -3.66557 -3.21489 -2.11642 7.49416e-006 -1.95032e-007 -3.01241 8.03008 -4.95138 0.697625 -78.3969 -17.2603 9.35398 -138.492 61.833 71.3705 -9.4337e-008 2.58898e-006 2.0073e-006 178.089 64.8779 -173.622 9.87291e-006 -6.21144e-007 3.00001 -8.03008 -4.95139 -0.697628 -175.51 3.14682 -1.13286 180 7.01552e-015 178.943 179.746 9.79474 179.636 1.83322e-006 1.71987e-006 0.246026 -20.4694 70.1164 21.4775 8.1365 25.2327 -3.48774 -179.125 11.1614 1.04258 4.54188e-006 -4.6773e-006 -0.97448 -1.21225 -16.6112 0.406294 -1.12461e-006 -6.64692e-007 -0.23002 19.0051 68.5426 -19.9941 -8.13649 25.2327 3.48774 
50.2174 84.0393 5.96605 -0.511942 -1.02236 22.6121 0.0089448 -0.557145 0.210363 0.00700848 2.88855 0.420834 0.00197206 4.5336 0.421237 -47.0496 -6.41959 -10.4097 55.9061 4.3141 -16.8672 19.2357 11.2136 20.4184 96.6316 69.7373 -10.6397 3.15848e-006 6.21163e-007 1.89028e-006 -3.66753 -3.40023 -2.12384 7.49416e-006 -1.95032e-007 -3.01246 8.03008 -4.95138 0.697625 -78.2078 -17.2344 9.35652 -138.274 61.9553 71.1104 -9.4337e-008 2.58898e-006 2.0073e-006 178.1 64.8116 -173.633 9.87291e-006 -6.21144e-007 3.00001 -8.03008 -4.95139 -0.697628 -175.514 3.08547 -1.13166 180 7.01552e-015 178.943 179.757 9.73144 179.637 1.83322e-006 1.71987e-006 0.242797 -20.4279 70.0765 21.4337 8.1365 25.2327 -3.48774 -179.118 11.1492 1.02323 4.54188e-006 -4.6773e-006 -0.974705 -1.23417 -16.6364 0.402638 -1.12461e-006 -6.64692e-007 -0.23172 19.036 68.5804 -20.0267 -8.13649 25.2327 3.48774 
